#!OML:ASF X:\für Bonn\!DataBase\2005_08_11_Bastian_Final\c3d\Bastian.ASF
:FULLY-SPECIFIED
:DEGREES
214
root 18.5794 15.5346 -3.26042 1096.39 -48.6416 20.9566
lowerback 76.0525 -0.322345 8.97748
upperback 13.2704 5.15186 3.86479
thorax -5.4399 1.69263 -1.05884
lowerneck -7.29349 -9.62908 -6.58116
upperneck -27.6827 -11.3787 13.6718
head -5.9661 -6.6655 5.84689
rclavicle -4.13472e-014 -3.65764e-014
rhumerus 80.5186 1.22216 -54.3388
rradius 9.14877
rwrist 16.689
rhand -39.8761 -22.5098
rfingers 7.12502
rthumb -12.8484 -52.0943
lclavicle -4.13472e-014 -3.65764e-014
lhumerus -11.7372 -26.773 -264.723
lradius 45.601
lwrist -332.331
lhand -13.3649 -17.5357
lfingers 7.12502
lthumb 12.7414 12.0555
rfemur -82.2387 -29.4579 27.5921
rtibia 76.3911
rfoot -24.8121 -6.27708
rtoes 6.1352
lfemur -74.6017 -12.3563 -32.3238
ltibia 54.4343
lfoot -0.239184 -23.6764
ltoes -9.66515
215
root 18.5754 15.5339 -3.26782 1096.39 -48.512 20.9309
lowerback 76.2283 -0.356217 8.93177
upperback 13.1364 5.12195 3.81485
thorax -5.57805 1.67641 -1.08167
lowerneck -7.233 -9.65129 -6.4557
upperneck -27.7166 -11.3721 13.8571
head -5.9791 -6.69216 5.89169
rclavicle 3.81667e-014 3.97569e-014
rhumerus 80.2602 1.34176 -55.1711
rradius 9.2447
rwrist 17.6568
rhand -40.2283 -22.2357
rfingers 7.12502
rthumb -13.1878 -51.7986
lclavicle 3.81667e-014 3.97569e-014
lhumerus -12.0166 -26.8102 -264.677
lradius 45.6063
lwrist -332.266
lhand -13.2188 -17.4691
lfingers 7.12502
lthumb 12.8823 12.1133
rfemur -82.1809 -29.474 27.5801
rtibia 76.4021
rfoot -24.8452 -6.38916
rtoes 6.06045
lfemur -74.5682 -12.4057 -32.2987
ltibia 54.4246
lfoot -0.250001 -23.741
ltoes -9.63763
216
root 18.5726 15.5361 -3.27519 1096.45 -48.387 20.8238
lowerback 76.3537 -0.419915 8.95518
upperback 13.0504 5.09367 3.75722
thorax -5.65661 1.66649 -1.14077
lowerneck -7.21048 -9.69676 -6.36667
upperneck -27.7681 -11.3898 14.0762
head -5.98424 -6.73136 5.95149
rclavicle 6.67916e-014 9.70069e-014
rhumerus 80.0046 1.40217 -56.0009
rradius 9.3368
rwrist 18.6787
rhand -40.5017 -22.0286
rfingers 7.12502
rthumb -13.4514 -51.5742
lclavicle 6.67916e-014 9.70069e-014
lhumerus -12.1711 -26.8364 -264.647
lradius 45.5428
lwrist -332.19
lhand -13.0305 -17.4692
lfingers 7.12502
lthumb 13.0638 12.1017
rfemur -82.0955 -29.4605 27.6115
rtibia 76.3792
rfoot -24.8868 -6.49935
rtoes 6.02539
lfemur -74.536 -12.4364 -32.2147
ltibia 54.4032
lfoot -0.223514 -23.7839
ltoes -9.68176
217
root 18.5688 15.5398 -3.28228 1096.45 -48.2913 20.7273
lowerback 76.5566 -0.488442 8.96388
upperback 12.9351 5.05459 3.66747
thorax -5.75938 1.65274 -1.22407
lowerneck -7.16711 -9.73123 -6.23671
upperneck -27.7906 -11.3956 14.2805
head -5.98835 -6.76601 5.9996
rclavicle -1.49486e-013 0
rhumerus 79.7055 1.5227 -56.8662
rradius 9.45986
rwrist 19.6387
rhand -40.7793 -21.7923
rfingers 7.12502
rthumb -13.7189 -51.32
lclavicle -1.49486e-013 0
lhumerus -12.3518 -26.9232 -264.675
lradius 45.5231
lwrist -332.127
lhand -12.7835 -17.3602
lfingers 7.12502
lthumb 13.3019 12.1953
rfemur -81.9101 -29.4488 27.5944
rtibia 76.3345
rfoot -24.9458 -6.5563
rtoes 6.228
lfemur -74.4248 -12.4269 -32.164
ltibia 54.371
lfoot -0.215052 -23.8671
ltoes -9.75464
218
root 18.5667 15.5444 -3.29012 1096.47 -48.1928 20.5896
lowerback 76.6929 -0.571039 9.01014
upperback 12.8864 5.00961 3.57807
thorax -5.78706 1.64215 -1.32016
lowerneck -7.21697 -9.80283 -6.12977
upperneck -27.8433 -11.4414 14.5346
head -5.97776 -6.82462 6.063
rclavicle 6.04305e-014 4.45278e-014
rhumerus 79.4802 1.55869 -57.7173
rradius 9.53803
rwrist 20.6286
rhand -40.9424 -21.5078
rfingers 7.12502
rthumb -13.8761 -51.0249
lclavicle 6.04305e-014 4.45278e-014
lhumerus -12.4368 -26.9976 -264.722
lradius 45.5211
lwrist -332.049
lhand -12.6301 -17.2924
lfingers 7.12502
lthumb 13.4498 12.2534
rfemur -81.75 -29.4396 27.6352
rtibia 76.2765
rfoot -24.9464 -6.64746
rtoes 6.16019
lfemur -74.3148 -12.4217 -32.077
ltibia 54.3315
lfoot -0.235927 -23.9027
ltoes -9.98243
219
root 18.566 15.5486 -3.29648 1096.51 -48.1013 20.4497
lowerback 76.813 -0.667118 9.06241
upperback 12.8107 4.95934 3.49077
thorax -5.84797 1.62715 -1.41515
lowerneck -7.15459 -9.90587 -6.05729
upperneck -27.9468 -11.5381 14.7814
head -5.99494 -6.90896 6.13928
rclavicle -1.27222e-013 7.79236e-014
rhumerus 79.1751 1.60102 -58.5441
rradius 9.68866
rwrist 21.6355
rhand -40.975 -21.1833
rfingers 7.12502
rthumb -13.9076 -50.6983
lclavicle -1.27222e-013 7.79236e-014
lhumerus -12.5944 -27.0036 -264.716
lradius 45.5028
lwrist -332.128
lhand -12.5396 -17.2133
lfingers 7.12502
lthumb 13.537 12.3266
rfemur -81.6069 -29.4468 27.701
rtibia 76.1985
rfoot -24.9417 -6.70729
rtoes 6.18481
lfemur -74.2239 -12.4396 -31.9569
ltibia 54.286
lfoot -0.25997 -23.9195
ltoes -10.1525
220
root 18.5659 15.5554 -3.30391 1096.52 -48.0192 20.2803
lowerback 76.9181 -0.765103 9.12598
upperback 12.7836 4.90074 3.38598
thorax -5.85047 1.61424 -1.53092
lowerneck -7.18577 -9.9938 -5.92494
upperneck -28.0191 -11.6071 15.0409
head -5.99259 -6.98422 6.20278
rclavicle 6.36111e-014 -2.06736e-014
rhumerus 78.9188 1.58456 -59.3996
rradius 9.77998
rwrist 22.6016
rhand -40.9519 -20.8246
rfingers 7.12502
rthumb -13.8852 -50.341
lclavicle 6.36111e-014 -2.06736e-014
lhumerus -12.6779 -27.1156 -264.803
lradius 45.4804
lwrist -332.158
lhand -12.456 -17.2046
lfingers 7.12502
lthumb 13.6176 12.33
rfemur -81.4103 -29.4553 27.7765
rtibia 76.1056
rfoot -24.9494 -6.72937
rtoes 6.16495
lfemur -74.0803 -12.3949 -31.8709
ltibia 54.2304
lfoot -0.213449 -23.9666
ltoes -10.1256
